<?xml version="1.0" encoding="utf-8"?>
<!-- Generator: Adobe Illustrator 24.1.0, SVG Export Plug-In . SVG Version: 6.00 Build 0)  -->
<svg version="1.1" id="Layer_1" xmlns="http://www.w3.org/2000/svg" xmlns:xlink="http://www.w3.org/1999/xlink" x="0px" y="0px"
	 viewBox="0 0 36.7 63.9" style="enable-background:new 0 0 36.7 63.9;" xml:space="preserve">
<style type="text/css">
	.st0{fill:none;stroke:#FFFFFF;stroke-width:0.49;stroke-miterlimit:10;}
	.st1{fill:#00A78D;}
	.st2{fill:none;}
</style>
<g id="Layer_2_1_">
	<g id="Layer_1-2">
		<path class="st0" d="M32.1,31c0,7.4-5.7,13.3-12.7,13.3S6.8,38.3,6.8,31s5.7-13.3,12.7-13.3S32.1,23.6,32.1,31z M34.4,31
			c0,8.7-6.7,15.8-15,15.8s-15-7.1-15-15.8s6.7-15.8,15-15.8S34.4,22.2,34.4,31z M36.5,31c0,9.9-7.6,18-17.1,18S2.4,41,2.4,31
			S10,13,19.4,13S36.5,21,36.5,31z M29.9,31c0.2,5.9-4.5,10.8-10.4,11C13.5,41.8,8.8,36.9,9,31c-0.2-5.9,4.5-10.8,10.4-11
			C25.3,20.2,30,25.1,29.9,31z"/>
		<path class="st1" d="M20.2,63.3L20.2,63.3c2.7,0,4.5,0,4.5,0l3-3.5V48.9c-2.4,1.2-5,1.8-7.6,2L20.2,63.3z"/>
		<path class="st1" d="M18.6,49.4h0.1V35.2H24v-7.9h-5.3L18.6,0C18.6,0,0,11.4,0,30.8C0,41,8.3,49.4,18.6,49.4"/>
		<path class="st0" d="M11.6,48.8v14.2 M13.8,49.7v14.2 M16,49.7v14.2 M18.2,49.7v14.2"/>
		<path class="st2" d="M11.1,59.8l3,3.5c0,0,1.8,0,4.5,0l0,0V51c-2.6,0-5.2-0.5-7.6-1.5L11.1,59.8z"/>
	</g>
</g>
</svg>
