<?xml version="1.0" encoding="utf-8"?>
<!-- Generator: Adobe Illustrator 24.1.0, SVG Export Plug-In . SVG Version: 6.00 Build 0)  -->
<svg version="1.1" id="Layer_1" xmlns="http://www.w3.org/2000/svg" xmlns:xlink="http://www.w3.org/1999/xlink" x="0px" y="0px"
	 viewBox="0 0 126.8 63.7" style="enable-background:new 0 0 126.8 63.7;" xml:space="preserve">
<style type="text/css">
	.st0{fill:#00A78D;}
	.st1{fill:#FFFFFF;}
</style>
<g>
	<polygon class="st0" points="1.5,1.2 12.8,1.2 12.8,5 5.4,5 5.4,9.9 12.5,9.9 12.5,13.7 5.4,13.7 5.4,18.5 12.8,18.5 12.8,22.3 
		1.5,22.3 	"/>
	<polygon class="st0" points="16.7,1.2 22,1.2 27.7,17.3 33.4,1.2 38.7,1.2 38.7,22.3 34.8,22.3 34.8,6.5 29.3,22.3 26,22.3 
		20.6,6.5 20.6,22.3 16.7,22.3 	"/>
	<polygon class="st0" points="43,1.2 54.3,1.2 54.3,5 46.9,5 46.9,9.9 54,9.9 54,13.7 46.9,13.7 46.9,18.5 54.3,18.5 54.3,22.3 
		43,22.3 	"/>
	<path class="st0" d="M58.2,1.2h6.1c2,0,3.9,0.1,5.5,1.5c1.5,1.3,2.4,3.2,2.4,5.2c0,1.5-0.7,3.4-1.7,4.6c-1,1.1-2.3,1.7-3.7,2
		l5.7,7.8h-4.8l-5.5-8.1v8.1h-3.9L58.2,1.2L58.2,1.2z M64.2,11.3c1,0,2.3-0.1,3.1-0.9c0.6-0.6,1-1.4,1-2.3s-0.4-1.8-1.1-2.4
		C66.3,5,65.4,5,64.3,5h-2.2v6.2h2.1V11.3z"/>
	<path class="st0" d="M82.7,1.2h3l8.9,21h-4.3L88,16.8h-7.5l-2.3,5.4h-4.3L82.7,1.2z M86.5,13.1l-2.2-6.4l-2.2,6.4H86.5z"/>
	<polygon class="st0" points="96.4,1.2 100.3,1.2 100.3,18.5 106.7,18.5 106.7,22.3 96.4,22.3 	"/>
	<path class="st0" d="M108.5,1.2h4.4c3.1,0,6.3,0.3,8.8,2.4c2.3,1.9,3.6,5.2,3.6,8.2c0,2.9-1.3,6.1-3.6,8c-2.5,2.2-5.5,2.4-8.7,2.4
		h-4.5V1.2z M112.8,18.5c2.2,0,4.2-0.1,6-1.4c1.6-1.3,2.5-3.2,2.5-5.2c0-2.2-1-4.3-2.8-5.6c-1.8-1.2-3.9-1.3-6-1.3h-0.3v13.5H112.8z
		"/>
	<path class="st1" d="M1.9,28.4h4.2c1.5,0,3,0,4.3,0.9c1.4,0.9,2.1,2.3,2.1,3.9c0,1.5-0.6,2.8-1.8,3.7s-2.6,1-4.1,1h-3v6.5H2v-16
		H1.9z M6.2,36.5c1.1,0,2.2,0,3.2-0.6c0.9-0.6,1.4-1.6,1.4-2.6c0-1.4-0.7-2.5-2-3C7.7,29.8,6.6,30,5.5,30h-2v6.6h2.7V36.5z"/>
	<polygon class="st1" points="23.8,28.4 25.4,28.4 25.4,42.9 32,42.9 32,44.4 23.8,44.4 	"/>
	<path class="st1" d="M48.4,28.4h1.8L57,44.3h-1.7L53,39h-7.4l-2.3,5.4h-1.7L48.4,28.4z M52.4,37.6l-3.1-7.3l-3.1,7.3H52.4z"/>
	<polygon class="st1" points="68.1,28.4 70.2,28.4 79.1,41.7 79.1,28.4 80.7,28.4 80.7,44.4 79.1,44.4 69.7,30.4 69.7,44.4 
		68.1,44.4 	"/>
	<polygon class="st1" points="93.2,28.4 101.9,28.4 101.9,29.9 94.8,29.9 94.8,35.6 101.7,35.6 101.7,37.1 94.8,37.1 94.8,42.9 
		101.9,42.9 101.9,44.4 93.2,44.4 	"/>
	<polygon class="st1" points="116.1,29.9 112.4,29.9 112.4,28.4 121.3,28.4 121.3,29.9 117.7,29.9 117.7,44.4 116.1,44.4 	"/>
	<path class="st1" d="M3.1,60c0,0.6,0.5,1,1.1,1s1-0.4,1-1c0-0.9-0.7-1.1-1.4-1.4c-0.5-0.2-1-0.3-1.4-0.7c-0.4-0.4-0.6-1-0.6-1.5
		c0-1.3,1.1-2.3,2.4-2.3c1.2,0,2.3,1,2.3,2.3H5c0-0.5-0.4-0.8-0.9-0.8S3.3,56,3.3,56.4c0,0.6,0.5,0.8,1,1c0.6,0.2,1.1,0.4,1.6,0.7
		c0.6,0.5,0.8,1,0.8,1.8c0,1.4-1.2,2.5-2.6,2.5c-1.4,0-2.6-1-2.6-2.4H3.1z"/>
	<polygon class="st1" points="9.6,54.3 11.6,54.3 13.8,60.4 15.9,54.3 17.9,54.3 17.9,62.3 16.5,62.3 16.5,56.3 14.4,62.3 
		13.1,62.3 11.1,56.3 11.1,62.3 9.6,62.3 	"/>
	<path class="st1" d="M23.8,54.3H25l3.4,8h-1.6l-0.9-2.1h-2.8l-1,2.1h-1.6L23.8,54.3z M25.3,58.8l-0.9-2.4l-0.9,2.4H25.3z"/>
	<path class="st1" d="M31,54.3h2.3c0.8,0,1.5,0.1,2.1,0.6s0.9,1.2,0.9,2c0,0.6-0.3,1.3-0.7,1.7c-0.4,0.4-0.9,0.6-1.4,0.8l2.2,3h-1.8
		l-2.1-3.1v3.1H31V54.3z M33.3,58.1c0.4,0,0.9-0.1,1.2-0.3c0.2-0.2,0.4-0.5,0.4-0.9c0-0.3-0.2-0.7-0.4-0.9c-0.3-0.3-0.7-0.3-1.1-0.3
		h-0.8v2.4C32.6,58.1,33.3,58.1,33.3,58.1z"/>
	<polygon class="st1" points="40.1,55.7 38.6,55.7 38.6,54.3 43.1,54.3 43.1,55.7 41.6,55.7 41.6,62.3 40.1,62.3 	"/>
	<path class="st1" d="M51.5,60c0,0.6,0.5,1,1.1,1s1-0.4,1-1c0-0.9-0.7-1.1-1.4-1.4c-0.5-0.2-1-0.3-1.4-0.7c-0.4-0.4-0.6-1-0.6-1.5
		c0-1.3,1.1-2.3,2.4-2.3c1.2,0,2.3,1,2.3,2.3h-1.5c0-0.5-0.4-0.8-0.9-0.8s-0.8,0.4-0.8,0.8c0,0.6,0.5,0.8,1,1
		c0.6,0.2,1.1,0.4,1.6,0.7c0.6,0.5,0.8,1,0.8,1.8c0,1.4-1.2,2.5-2.6,2.5s-2.6-1-2.6-2.4H51.5z"/>
	<path class="st1" d="M65.9,58.3c0,2.3-1.9,4.2-4.2,4.2c-2.3,0-4.2-1.8-4.2-4.1c0-2.3,1.9-4.2,4.2-4.2C64.1,54.1,65.9,56,65.9,58.3
		 M61.8,55.6L61.8,55.6c-1.5,0-2.7,1.2-2.7,2.8c0,1.5,1.2,2.7,2.7,2.7s2.7-1.2,2.7-2.7C64.5,56.8,63.2,55.6,61.8,55.6"/>
	<polygon class="st1" points="68.9,54.3 70.4,54.3 70.4,60.8 72.9,60.8 72.9,62.3 68.9,62.3 	"/>
	<path class="st1" d="M77,54.3v5c0,0.4,0,0.7,0.2,1.1s0.6,0.7,1.1,0.7c0.4,0,0.8-0.2,1-0.6s0.2-0.8,0.2-1.2v-5H81v5
		c0,0.8-0.1,1.5-0.6,2.2c-0.5,0.6-1.3,1-2.1,1c-0.8,0-1.5-0.4-2-1c-0.6-0.7-0.6-1.4-0.6-2.2v-5H77z"/>
	<polygon class="st1" points="85.1,55.7 83.6,55.7 83.6,54.3 88.1,54.3 88.1,55.7 86.6,55.7 86.6,62.3 85.1,62.3 	"/>
	<rect x="90.7" y="54.3" class="st1" width="1.5" height="8"/>
	<path class="st1" d="M103.5,58.3c0,2.3-1.9,4.2-4.2,4.2s-4.2-1.8-4.2-4.1c0-2.3,1.9-4.2,4.2-4.2C101.6,54.1,103.5,56,103.5,58.3
		 M99.3,55.6L99.3,55.6c-1.5,0-2.7,1.2-2.7,2.8c0,1.5,1.2,2.7,2.7,2.7s2.7-1.2,2.7-2.7C102,56.8,100.8,55.6,99.3,55.6"/>
	<polygon class="st1" points="106.5,54.3 108.1,54.3 111.5,60.1 111.5,54.3 113,54.3 113,62.3 111.3,62.3 108,56.4 108,62.3 
		106.5,62.3 	"/>
	<path class="st1" d="M117.3,60c0,0.6,0.5,1,1.1,1s1-0.4,1-1c0-0.9-0.7-1.1-1.4-1.4c-0.5-0.2-1-0.3-1.4-0.7c-0.4-0.4-0.6-1-0.6-1.5
		c0-1.3,1.1-2.3,2.4-2.3c1.2,0,2.3,1,2.3,2.3h-1.5c0-0.5-0.4-0.8-0.9-0.8s-0.8,0.4-0.8,0.8c0,0.6,0.5,0.8,1,1
		c0.6,0.2,1.1,0.4,1.6,0.7c0.6,0.5,0.8,1,0.8,1.8c0,1.4-1.2,2.5-2.6,2.5c-1.4,0-2.6-1-2.6-2.4H117.3z"/>
</g>
</svg>
