<?xml version="1.0" encoding="utf-8"?>
<!-- Generator: Adobe Illustrator 24.1.0, SVG Export Plug-In . SVG Version: 6.00 Build 0)  -->
<svg version="1.1" id="Layer_1" xmlns="http://www.w3.org/2000/svg" xmlns:xlink="http://www.w3.org/1999/xlink" x="0px" y="0px"
	 viewBox="0 0 171 84" style="enable-background:new 0 0 171 84;" xml:space="preserve">
<style type="text/css">
	.st0{fill:none;stroke:#FFFFFF;stroke-width:0.493;stroke-miterlimit:10;}
	.st1{fill:#00A78D;}
	.st2{fill:none;}
	.st3{fill:#FFFFFF;}
</style>
<g>
	<path class="st0" d="M32.9,31.9c0,7.4-5.7,13.3-12.7,13.3c-7,0-12.7-6-12.7-13.3c0-7.4,5.7-13.3,12.7-13.3
		C27.2,18.6,32.9,24.5,32.9,31.9z M35.2,31.9c0,8.7-6.7,15.8-15,15.8c-8.3,0-15-7.1-15-15.8c0-8.7,6.7-15.8,15-15.8
		C28.5,16.1,35.2,23.2,35.2,31.9z M37.3,31.9c0,9.9-7.6,18-17.1,18c-9.4,0-17.1-8-17.1-18c0-9.9,7.6-18,17.1-18
		C29.6,13.9,37.3,22,37.3,31.9z M30.7,31.9c0,6.1-4.7,11-10.4,11c-5.8,0-10.4-4.9-10.4-11c0-6.1,4.7-11,10.4-11
		C26,20.9,30.7,25.8,30.7,31.9z"/>
	<path class="st1" d="M21,64.3L21,64.3c2.7,0,4.6,0,4.6,0l3-3.5V49.8c-2.3,1.1-4.9,1.9-7.6,2V64.3z"/>
	<path class="st1" d="M19.4,50.3h0.1l0-14.1h5.3v-7.9h-5.3L19.4,0.9c0,0-18.6,11.4-18.6,30.8C0.8,42,9.1,50.3,19.4,50.3"/>
	<path class="st0" d="M12.4,49.7l0,14.2 M14.6,50.6l0,14.2 M16.8,50.6l0,14.2 M19,50.6l0,14.2"/>
	<path class="st2" d="M11.9,60.7l3,3.5c0,0,1.8,0,4.5,0h0l0-12.3c-2.7,0-5.2-0.6-7.6-1.5V60.7z"/>
	<polygon class="st1" points="46.4,21.8 57.7,21.8 57.7,25.6 50.3,25.6 50.3,30.5 57.4,30.5 57.4,34.3 50.3,34.3 50.3,39.1 
		57.7,39.1 57.7,42.9 46.4,42.9 	"/>
	<polygon class="st1" points="61.6,21.8 66.9,21.8 72.6,37.9 78.3,21.8 83.6,21.8 83.6,42.9 79.7,42.9 79.7,27.1 74.2,42.9 
		70.9,42.9 65.5,27.1 65.5,42.9 61.6,42.9 	"/>
	<polygon class="st1" points="87.9,21.8 99.2,21.8 99.2,25.6 91.8,25.6 91.8,30.5 98.9,30.5 98.9,34.3 91.8,34.3 91.8,39.1 
		99.2,39.1 99.2,42.9 87.9,42.9 	"/>
	<path class="st1" d="M103.1,21.8h6.1c2,0,3.9,0.1,5.5,1.5c1.5,1.3,2.4,3.2,2.4,5.2c0,1.5-0.7,3.4-1.7,4.6c-1,1.1-2.3,1.7-3.7,2
		l5.7,7.8h-4.8l-5.5-8.1v8.1h-3.9V21.8z M109.1,31.9c1,0,2.3-0.1,3.1-0.9c0.6-0.6,1-1.4,1-2.3c0-0.9-0.4-1.8-1.1-2.4
		c-0.9-0.7-1.8-0.7-2.9-0.7H107v6.2H109.1z"/>
	<path class="st1" d="M127.6,21.8h3l8.9,21h-4.3l-2.3-5.4h-7.5l-2.3,5.4h-4.3L127.6,21.8z M131.4,33.7l-2.2-6.4l-2.2,6.4H131.4z"/>
	<polygon class="st1" points="141.3,21.8 145.2,21.8 145.2,39.1 151.6,39.1 151.6,42.9 141.3,42.9 	"/>
	<path class="st1" d="M153.4,21.8h4.4c3.1,0,6.3,0.3,8.8,2.4c2.3,1.9,3.6,5.2,3.6,8.2c0,2.9-1.3,6.1-3.6,8c-2.5,2.2-5.5,2.4-8.7,2.4
		h-4.5V21.8z M157.7,39.1c2.2,0,4.2-0.1,6-1.4c1.6-1.3,2.5-3.2,2.5-5.2c0-2.2-1-4.3-2.8-5.6c-1.8-1.2-3.9-1.3-6-1.3h-0.3v13.5H157.7
		z"/>
	<path class="st3" d="M46.8,49H51c1.5,0,3,0,4.3,0.9c1.4,0.9,2.1,2.3,2.1,3.9c0,1.5-0.6,2.8-1.8,3.7c-1.2,0.9-2.6,1-4.1,1h-3V65
		h-1.6V49z M51.1,57.1c1.1,0,2.2,0,3.2-0.6c0.9-0.6,1.4-1.6,1.4-2.6c0-1.4-0.7-2.5-2-3c-1.1-0.5-2.2-0.3-3.3-0.3h-2v6.6H51.1z"/>
	<polygon class="st3" points="68.7,49 70.3,49 70.3,63.5 76.9,63.5 76.9,65 68.7,65 	"/>
	<path class="st3" d="M93.3,49h1.8l6.8,15.9h-1.7l-2.3-5.3h-7.4L88.2,65h-1.7L93.3,49z M97.3,58.2l-3.1-7.3l-3.1,7.3H97.3z"/>
	<polygon class="st3" points="113,49 115.1,49 124,62.3 124,49 125.6,49 125.6,65 124,65 114.6,51 114.6,65 113,65 	"/>
	<polygon class="st3" points="138.1,49 146.8,49 146.8,50.5 139.7,50.5 139.7,56.2 146.6,56.2 146.6,57.7 139.7,57.7 139.7,63.5 
		146.8,63.5 146.8,65 138.1,65 	"/>
	<polygon class="st3" points="161,50.5 157.3,50.5 157.3,49 166.2,49 166.2,50.5 162.6,50.5 162.6,65 161,65 	"/>
	<path class="st3" d="M48,80.6c0,0.6,0.5,1,1.1,1c0.6,0,1-0.4,1-1c0-0.9-0.7-1.1-1.4-1.4c-0.5-0.2-1-0.3-1.4-0.7
		c-0.4-0.4-0.6-1-0.6-1.5c0-1.3,1.1-2.3,2.4-2.3c1.2,0,2.3,1,2.3,2.3h-1.5c0-0.5-0.4-0.8-0.9-0.8c-0.5,0-0.8,0.4-0.8,0.8
		c0,0.6,0.5,0.8,1,1c0.6,0.2,1.1,0.4,1.6,0.7c0.6,0.5,0.8,1,0.8,1.8c0,1.4-1.2,2.5-2.6,2.5c-1.4,0-2.6-1-2.6-2.4H48z"/>
	<polygon class="st3" points="54.5,74.9 56.5,74.9 58.7,81 60.8,74.9 62.8,74.9 62.8,82.9 61.4,82.9 61.4,76.9 59.3,82.9 58,82.9 
		56,76.9 56,82.9 54.5,82.9 	"/>
	<path class="st3" d="M68.7,74.9h1.2l3.4,8h-1.6l-0.9-2.1h-2.8L67,82.9h-1.6L68.7,74.9z M70.2,79.4l-0.9-2.4l-0.9,2.4H70.2z"/>
	<path class="st3" d="M75.9,74.9h2.3c0.8,0,1.5,0.1,2.1,0.6c0.6,0.5,0.9,1.2,0.9,2c0,0.6-0.3,1.3-0.7,1.7c-0.4,0.4-0.9,0.6-1.4,0.8
		l2.2,3h-1.8l-2.1-3.1v3.1h-1.5V74.9z M78.2,78.7c0.4,0,0.9-0.1,1.2-0.3c0.2-0.2,0.4-0.5,0.4-0.9c0-0.3-0.2-0.7-0.4-0.9
		c-0.3-0.3-0.7-0.3-1.1-0.3h-0.8v2.4H78.2z"/>
	<polygon class="st3" points="85,76.3 83.5,76.3 83.5,74.9 88,74.9 88,76.3 86.5,76.3 86.5,82.9 85,82.9 	"/>
	<path class="st3" d="M96.4,80.6c0,0.6,0.5,1,1.1,1c0.6,0,1-0.4,1-1c0-0.9-0.7-1.1-1.4-1.4c-0.5-0.2-1-0.3-1.4-0.7
		c-0.4-0.4-0.6-1-0.6-1.5c0-1.3,1.1-2.3,2.4-2.3c1.2,0,2.3,1,2.3,2.3h-1.5c0-0.5-0.4-0.8-0.9-0.8c-0.5,0-0.8,0.4-0.8,0.8
		c0,0.6,0.5,0.8,1,1c0.6,0.2,1.1,0.4,1.6,0.7c0.6,0.5,0.8,1,0.8,1.8c0,1.4-1.2,2.5-2.6,2.5c-1.4,0-2.6-1-2.6-2.4H96.4z"/>
	<path class="st3" d="M110.8,78.9c0,2.3-1.9,4.2-4.2,4.2c-2.3,0-4.2-1.8-4.2-4.1c0-2.3,1.9-4.2,4.2-4.2
		C109,74.7,110.8,76.6,110.8,78.9 M106.7,76.2L106.7,76.2c-1.5,0-2.7,1.2-2.7,2.8c0,1.5,1.2,2.7,2.7,2.7c1.5,0,2.7-1.2,2.7-2.7
		C109.4,77.4,108.1,76.2,106.7,76.2"/>
	<polygon class="st3" points="113.8,74.9 115.3,74.9 115.3,81.4 117.8,81.4 117.8,82.9 113.8,82.9 	"/>
	<path class="st3" d="M121.9,74.9v5c0,0.4,0,0.7,0.2,1.1c0.2,0.4,0.6,0.7,1.1,0.7c0.4,0,0.8-0.2,1-0.6c0.2-0.4,0.2-0.8,0.2-1.2v-5
		h1.5v5c0,0.8-0.1,1.5-0.6,2.2c-0.5,0.6-1.3,1-2.1,1c-0.8,0-1.5-0.4-2-1c-0.6-0.7-0.6-1.4-0.6-2.2v-5H121.9z"/>
	<polygon class="st3" points="130,76.3 128.5,76.3 128.5,74.9 133,74.9 133,76.3 131.5,76.3 131.5,82.9 130,82.9 	"/>
	<rect x="135.6" y="74.9" class="st3" width="1.5" height="8"/>
	<path class="st3" d="M148.4,78.9c0,2.3-1.9,4.2-4.2,4.2c-2.3,0-4.2-1.8-4.2-4.1c0-2.3,1.9-4.2,4.2-4.2
		C146.5,74.7,148.4,76.6,148.4,78.9 M144.2,76.2L144.2,76.2c-1.5,0-2.7,1.2-2.7,2.8c0,1.5,1.2,2.7,2.7,2.7c1.5,0,2.7-1.2,2.7-2.7
		C146.9,77.4,145.7,76.2,144.2,76.2"/>
	<polygon class="st3" points="151.4,74.9 153,74.9 156.4,80.7 156.4,74.9 157.9,74.9 157.9,82.9 156.2,82.9 152.9,77 152.9,82.9 
		151.4,82.9 	"/>
	<path class="st3" d="M162.2,80.6c0,0.6,0.5,1,1.1,1c0.6,0,1-0.4,1-1c0-0.9-0.7-1.1-1.4-1.4c-0.5-0.2-1-0.3-1.4-0.7
		c-0.4-0.4-0.6-1-0.6-1.5c0-1.3,1.1-2.3,2.4-2.3c1.2,0,2.3,1,2.3,2.3h-1.5c0-0.5-0.4-0.8-0.9-0.8c-0.5,0-0.8,0.4-0.8,0.8
		c0,0.6,0.5,0.8,1,1c0.6,0.2,1.1,0.4,1.6,0.7c0.6,0.5,0.8,1,0.8,1.8c0,1.4-1.2,2.5-2.6,2.5c-1.4,0-2.6-1-2.6-2.4H162.2z"/>
</g>
</svg>
